<mxfile host="65bd71144e" pages="2">
    <diagram id="RCAytrC0uiRudEu2Lztz" name="Page-1">
        <mxGraphModel dx="974" dy="422" grid="1" gridSize="10" guides="1" tooltips="1" connect="1" arrows="1" fold="1" page="1" pageScale="1" pageWidth="1169" pageHeight="827" math="0" shadow="0">
            <root>
                <mxCell id="0"/>
                <mxCell id="1" parent="0"/>
                <mxCell id="2" value="Admin" style="rounded=0;whiteSpace=wrap;html=1;" parent="1" vertex="1">
                    <mxGeometry x="960" y="300" width="120" height="60" as="geometry"/>
                </mxCell>
                <mxCell id="3" value="Menu" style="rounded=0;whiteSpace=wrap;html=1;" parent="1" vertex="1">
                    <mxGeometry x="220" y="300" width="120" height="60" as="geometry"/>
                </mxCell>
                <mxCell id="4" value="TransaksiMenu&lt;br&gt;" style="rounded=0;whiteSpace=wrap;html=1;" parent="1" vertex="1">
                    <mxGeometry x="465" y="300" width="120" height="60" as="geometry"/>
                </mxCell>
                <mxCell id="5" value="Customer" style="rounded=0;whiteSpace=wrap;html=1;" parent="1" vertex="1">
                    <mxGeometry x="390" y="550" width="120" height="60" as="geometry"/>
                </mxCell>
                <mxCell id="13" value="" style="endArrow=none;html=1;exitX=1;exitY=0.5;exitDx=0;exitDy=0;entryX=0;entryY=0.5;entryDx=0;entryDy=0;" parent="1" source="3" target="4" edge="1">
                    <mxGeometry width="50" height="50" relative="1" as="geometry">
                        <mxPoint x="470" y="450" as="sourcePoint"/>
                        <mxPoint x="520" y="400" as="targetPoint"/>
                    </mxGeometry>
                </mxCell>
                <mxCell id="14" value="" style="endArrow=none;html=1;exitX=1;exitY=0.5;exitDx=0;exitDy=0;" parent="1" source="5" edge="1">
                    <mxGeometry width="50" height="50" relative="1" as="geometry">
                        <mxPoint x="470" y="450" as="sourcePoint"/>
                        <mxPoint x="560" y="360" as="targetPoint"/>
                        <Array as="points">
                            <mxPoint x="560" y="580"/>
                        </Array>
                    </mxGeometry>
                </mxCell>
                <mxCell id="15" value="" style="endArrow=none;html=1;startArrow=none;" parent="1" source="RZ7OF_QmyRt65NjjlVoq-15" edge="1">
                    <mxGeometry width="50" height="50" relative="1" as="geometry">
                        <mxPoint x="700" y="330" as="sourcePoint"/>
                        <mxPoint x="830" y="330" as="targetPoint"/>
                        <Array as="points">
                            <mxPoint x="960" y="330"/>
                        </Array>
                    </mxGeometry>
                </mxCell>
                <mxCell id="KCy6RthDhMysMqVgXXX4-15" value="&lt;b&gt;&lt;font style=&quot;font-size: 36px&quot;&gt;&amp;nbsp;Catering&lt;/font&gt;&lt;/b&gt;" style="text;html=1;strokeColor=none;fillColor=none;align=center;verticalAlign=middle;whiteSpace=wrap;rounded=0;" parent="1" vertex="1">
                    <mxGeometry x="340" y="80" width="370" height="30" as="geometry"/>
                </mxCell>
                <mxCell id="RZ7OF_QmyRt65NjjlVoq-15" value="Transaksi" style="rounded=0;whiteSpace=wrap;html=1;" parent="1" vertex="1">
                    <mxGeometry x="690" y="300" width="120" height="60" as="geometry"/>
                </mxCell>
                <mxCell id="RZ7OF_QmyRt65NjjlVoq-17" value="" style="endArrow=none;html=1;fontSize=36;exitX=1;exitY=0.5;exitDx=0;exitDy=0;entryX=0;entryY=0.5;entryDx=0;entryDy=0;" parent="1" source="4" target="RZ7OF_QmyRt65NjjlVoq-15" edge="1">
                    <mxGeometry width="50" height="50" relative="1" as="geometry">
                        <mxPoint x="710" y="370" as="sourcePoint"/>
                        <mxPoint x="760" y="320" as="targetPoint"/>
                    </mxGeometry>
                </mxCell>
            </root>
        </mxGraphModel>
    </diagram>
    <diagram id="_mkqesWlfaA6r6PjS4db" name="Page-2">
        <mxGraphModel dx="334" dy="422" grid="1" gridSize="10" guides="1" tooltips="1" connect="1" arrows="1" fold="1" page="1" pageScale="1" pageWidth="1169" pageHeight="827" math="0" shadow="0">
            <root>
                <mxCell id="oyE7BN3fRBPzwRNCBrMu-0"/>
                <mxCell id="oyE7BN3fRBPzwRNCBrMu-1" parent="oyE7BN3fRBPzwRNCBrMu-0"/>
                <mxCell id="oyE7BN3fRBPzwRNCBrMu-2" value="Admin" style="swimlane;" parent="oyE7BN3fRBPzwRNCBrMu-1" vertex="1">
                    <mxGeometry x="790" y="120" width="215" height="230" as="geometry"/>
                </mxCell>
                <mxCell id="oyE7BN3fRBPzwRNCBrMu-5" value="&lt;div&gt;&lt;span&gt;- idAdmin : int&lt;/span&gt;&lt;/div&gt;&lt;div&gt;&lt;span&gt;- namaAdmin : String&lt;/span&gt;&lt;/div&gt;&lt;div&gt;&lt;span&gt;- noHp : String&lt;/span&gt;&lt;/div&gt;&lt;div&gt;&lt;span&gt;- pembayaran :Pembayaran&lt;/span&gt;&lt;/div&gt;" style="text;html=1;strokeColor=none;fillColor=none;align=left;verticalAlign=middle;whiteSpace=wrap;rounded=0;" parent="oyE7BN3fRBPzwRNCBrMu-2" vertex="1">
                    <mxGeometry x="10" y="30" width="190" height="50" as="geometry"/>
                </mxCell>
                <mxCell id="FlEqfHavPMA4YwT8L5E6-4" value="+ Admin()&lt;br&gt;+ Admin(namaAdmin : String, noHp : String, pembayaran : Pembayaran)&lt;br&gt;+ melayaniCustomer() : void&lt;br&gt;+ kelolaMenu():void&lt;br&gt;+ kelolaTransaksi() : void" style="text;html=1;strokeColor=none;fillColor=none;align=left;verticalAlign=middle;whiteSpace=wrap;rounded=0;fontSize=12;" parent="oyE7BN3fRBPzwRNCBrMu-2" vertex="1">
                    <mxGeometry x="10" y="110" width="205" height="100" as="geometry"/>
                </mxCell>
                <mxCell id="oyE7BN3fRBPzwRNCBrMu-3" value="Menu" style="swimlane;startSize=23;" parent="oyE7BN3fRBPzwRNCBrMu-1" vertex="1">
                    <mxGeometry x="50" y="120" width="230" height="230" as="geometry"/>
                </mxCell>
                <mxCell id="oyE7BN3fRBPzwRNCBrMu-7" value="&lt;div style=&quot;text-align: left&quot;&gt;&lt;span&gt;- idMenu : int&lt;/span&gt;&lt;/div&gt;&lt;div style=&quot;text-align: left&quot;&gt;&lt;span&gt;- namaMenu : String&lt;/span&gt;&lt;/div&gt;&lt;div style=&quot;text-align: left&quot;&gt;&lt;span&gt;- harga: int&lt;/span&gt;&lt;/div&gt;&lt;div style=&quot;text-align: left&quot;&gt;&lt;span&gt;- tambahan : String&lt;/span&gt;&lt;/div&gt;&lt;div style=&quot;text-align: left&quot;&gt;&lt;br&gt;&lt;/div&gt;" style="text;html=1;strokeColor=none;fillColor=none;align=center;verticalAlign=middle;whiteSpace=wrap;rounded=0;" parent="oyE7BN3fRBPzwRNCBrMu-3" vertex="1">
                    <mxGeometry x="-30" y="40" width="190" height="50" as="geometry"/>
                </mxCell>
                <mxCell id="hObojRO29Xp_EQGj67Zw-1" value="&lt;div style=&quot;text-align: left&quot;&gt;+ Menu()&lt;/div&gt;&lt;div style=&quot;text-align: left&quot;&gt;+ Menu(inamaMenu : String, harga : int)&lt;/div&gt;&lt;div style=&quot;text-align: left&quot;&gt;+ getAll(): Array:ist&amp;lt;Menu&amp;gt;&lt;/div&gt;&lt;div style=&quot;text-align: left&quot;&gt;+ search(keyword: String): ArrayList&amp;lt;Menu&amp;gt;&lt;/div&gt;&lt;div style=&quot;text-align: left&quot;&gt;+ save(): void&lt;/div&gt;&lt;div style=&quot;text-align: left&quot;&gt;+ delete(): void&lt;/div&gt;" style="text;html=1;strokeColor=none;fillColor=none;align=center;verticalAlign=middle;whiteSpace=wrap;rounded=0;" parent="oyE7BN3fRBPzwRNCBrMu-3" vertex="1">
                    <mxGeometry x="10" y="120" width="220" height="70" as="geometry"/>
                </mxCell>
                <mxCell id="oyE7BN3fRBPzwRNCBrMu-8" value="" style="endArrow=none;html=1;exitX=0;exitY=0.5;exitDx=0;exitDy=0;entryX=1;entryY=0.5;entryDx=0;entryDy=0;" parent="oyE7BN3fRBPzwRNCBrMu-3" edge="1">
                    <mxGeometry width="50" height="50" relative="1" as="geometry">
                        <mxPoint y="89.99999999999989" as="sourcePoint"/>
                        <mxPoint x="230" y="89.99999999999989" as="targetPoint"/>
                    </mxGeometry>
                </mxCell>
                <mxCell id="oyE7BN3fRBPzwRNCBrMu-4" value="Transaksi" style="swimlane;" parent="oyE7BN3fRBPzwRNCBrMu-1" vertex="1">
                    <mxGeometry x="430" y="120" width="220" height="270" as="geometry"/>
                </mxCell>
                <mxCell id="oyE7BN3fRBPzwRNCBrMu-9" value="&lt;div&gt;&lt;span&gt;- idTransaksi : int&lt;/span&gt;&lt;/div&gt;&lt;div&gt;&lt;span&gt;- admin: Admin&lt;/span&gt;&lt;/div&gt;&lt;div&gt;&lt;span&gt;- tanggal : String&lt;/span&gt;&lt;/div&gt;&lt;div&gt;&lt;span&gt;- waktu: time&lt;/span&gt;&lt;/div&gt;&lt;div&gt;&lt;span&gt;- total : int&lt;/span&gt;&lt;/div&gt;&lt;div&gt;&lt;span&gt;- daftarMenu : listMenu&amp;lt;Menu&amp;gt;&lt;/span&gt;&lt;/div&gt;" style="text;html=1;strokeColor=none;fillColor=none;align=left;verticalAlign=middle;whiteSpace=wrap;rounded=0;" parent="oyE7BN3fRBPzwRNCBrMu-4" vertex="1">
                    <mxGeometry x="10" y="60" width="190" height="50" as="geometry"/>
                </mxCell>
                <mxCell id="oyE7BN3fRBPzwRNCBrMu-10" value="" style="endArrow=none;html=1;" parent="oyE7BN3fRBPzwRNCBrMu-4" edge="1">
                    <mxGeometry width="50" height="50" relative="1" as="geometry">
                        <mxPoint y="137" as="sourcePoint"/>
                        <mxPoint x="220" y="137" as="targetPoint"/>
                    </mxGeometry>
                </mxCell>
                <mxCell id="FlEqfHavPMA4YwT8L5E6-0" value="+ Transaksi()&lt;br&gt;+ Transaksi(tanggal : String, total : int, menu : Menu)&amp;nbsp;&lt;br&gt;+ menghitungTransaksi() : void&lt;br&gt;+ getById(id:int): Transaksi&lt;br&gt;+ save(): void&lt;br&gt;+ cetakTransaksi() : void&lt;br&gt;+ cariTransaksi():void" style="text;html=1;strokeColor=none;fillColor=none;align=left;verticalAlign=middle;whiteSpace=wrap;rounded=0;fontSize=12;" parent="oyE7BN3fRBPzwRNCBrMu-4" vertex="1">
                    <mxGeometry x="10" y="190" width="210" height="30" as="geometry"/>
                </mxCell>
                <mxCell id="oyE7BN3fRBPzwRNCBrMu-6" value="" style="endArrow=none;html=1;exitX=0;exitY=0.5;exitDx=0;exitDy=0;entryX=1;entryY=0.5;entryDx=0;entryDy=0;" parent="oyE7BN3fRBPzwRNCBrMu-1" edge="1">
                    <mxGeometry width="50" height="50" relative="1" as="geometry">
                        <mxPoint x="790" y="220.9999999999999" as="sourcePoint"/>
                        <mxPoint x="1005" y="220.9999999999999" as="targetPoint"/>
                    </mxGeometry>
                </mxCell>
                <mxCell id="oyE7BN3fRBPzwRNCBrMu-11" value="Customer" style="swimlane;" parent="oyE7BN3fRBPzwRNCBrMu-1" vertex="1">
                    <mxGeometry x="280" y="560" width="250" height="200" as="geometry"/>
                </mxCell>
                <mxCell id="oyE7BN3fRBPzwRNCBrMu-12" value="&lt;div style=&quot;text-align: left&quot;&gt;&lt;span&gt;- idCustomer : int&lt;/span&gt;&lt;/div&gt;&lt;div style=&quot;text-align: left&quot;&gt;&lt;span&gt;- namaCustomer : String&lt;/span&gt;&lt;/div&gt;&lt;div style=&quot;text-align: left&quot;&gt;&lt;span&gt;- noHp : String&lt;/span&gt;&lt;/div&gt;&lt;div style=&quot;text-align: left&quot;&gt;&lt;br&gt;&lt;/div&gt;" style="text;html=1;strokeColor=none;fillColor=none;align=center;verticalAlign=middle;whiteSpace=wrap;rounded=0;" parent="oyE7BN3fRBPzwRNCBrMu-11" vertex="1">
                    <mxGeometry x="-10" y="40" width="190" height="50" as="geometry"/>
                </mxCell>
                <mxCell id="FlEqfHavPMA4YwT8L5E6-2" value="+ Customer()&lt;br&gt;+ Customer(namaCustomer : String, noHp : String)&lt;br&gt;+ getByid(id:int): Customer&lt;br&gt;+ memiliMenu() : void&lt;br&gt;+ membayarMenu():void" style="text;html=1;strokeColor=none;fillColor=none;align=left;verticalAlign=middle;whiteSpace=wrap;rounded=0;fontSize=12;" parent="oyE7BN3fRBPzwRNCBrMu-11" vertex="1">
                    <mxGeometry x="10" y="130" width="230" height="30" as="geometry"/>
                </mxCell>
                <mxCell id="oyE7BN3fRBPzwRNCBrMu-13" value="" style="endArrow=none;html=1;exitX=0;exitY=0.5;exitDx=0;exitDy=0;entryX=1;entryY=0.5;entryDx=0;entryDy=0;" parent="oyE7BN3fRBPzwRNCBrMu-1" source="oyE7BN3fRBPzwRNCBrMu-11" target="oyE7BN3fRBPzwRNCBrMu-11" edge="1">
                    <mxGeometry width="50" height="50" relative="1" as="geometry">
                        <mxPoint x="590" y="420" as="sourcePoint"/>
                        <mxPoint x="640" y="370" as="targetPoint"/>
                    </mxGeometry>
                </mxCell>
                <mxCell id="Ayh-jWY5VeTY45UWonSG-0" value="" style="endArrow=none;html=1;exitX=0.431;exitY=0.002;exitDx=0;exitDy=0;exitPerimeter=0;entryX=0.5;entryY=1;entryDx=0;entryDy=0;" parent="oyE7BN3fRBPzwRNCBrMu-1" source="oyE7BN3fRBPzwRNCBrMu-11" target="oyE7BN3fRBPzwRNCBrMu-4" edge="1">
                    <mxGeometry width="50" height="50" relative="1" as="geometry">
                        <mxPoint x="350" y="400" as="sourcePoint"/>
                        <mxPoint x="160" y="350" as="targetPoint"/>
                        <Array as="points">
                            <mxPoint x="388" y="480"/>
                            <mxPoint x="540" y="480"/>
                        </Array>
                    </mxGeometry>
                </mxCell>
                <mxCell id="Ayh-jWY5VeTY45UWonSG-1" value="" style="endArrow=none;html=1;entryX=0;entryY=1;entryDx=0;entryDy=0;" parent="oyE7BN3fRBPzwRNCBrMu-1" edge="1">
                    <mxGeometry width="50" height="50" relative="1" as="geometry">
                        <mxPoint x="280" y="234" as="sourcePoint"/>
                        <mxPoint x="430" y="234.0000000000001" as="targetPoint"/>
                    </mxGeometry>
                </mxCell>
                <mxCell id="Ayh-jWY5VeTY45UWonSG-2" value="" style="endArrow=none;html=1;" parent="oyE7BN3fRBPzwRNCBrMu-1" edge="1">
                    <mxGeometry width="50" height="50" relative="1" as="geometry">
                        <mxPoint x="650" y="231" as="sourcePoint"/>
                        <mxPoint x="790" y="231" as="targetPoint"/>
                    </mxGeometry>
                </mxCell>
                <mxCell id="RAXWlYO_DWihblImHkqh-1" value="&lt;font style=&quot;font-size: 36px&quot;&gt;Catering&lt;/font&gt;" style="text;html=1;strokeColor=none;fillColor=none;align=center;verticalAlign=middle;whiteSpace=wrap;rounded=0;" parent="oyE7BN3fRBPzwRNCBrMu-1" vertex="1">
                    <mxGeometry x="500" y="40" width="60" height="30" as="geometry"/>
                </mxCell>
            </root>
        </mxGraphModel>
    </diagram>
    <diagram id="Kk-iHX87nEiz0x4Yihvg" name="Page-3">
        <mxGraphModel dx="974" dy="422" grid="1" gridSize="10" guides="1" tooltips="1" connect="1" arrows="1" fold="1" page="1" pageScale="1" pageWidth="1169" pageHeight="827" math="0" shadow="0">
            <root>
                <mxCell id="OqiC1IMQxcWRUJmhU-GH-0"/>
                <mxCell id="OqiC1IMQxcWRUJmhU-GH-1" parent="OqiC1IMQxcWRUJmhU-GH-0"/>
                <mxCell id="OqiC1IMQxcWRUJmhU-GH-2" value="" style="whiteSpace=wrap;html=1;aspect=fixed;" parent="OqiC1IMQxcWRUJmhU-GH-1" vertex="1">
                    <mxGeometry x="200" y="200" width="560" height="560" as="geometry"/>
                </mxCell>
                <mxCell id="M_8-mfH1-mSaO6mdAAVp-0" value="" style="rounded=0;whiteSpace=wrap;html=1;" parent="OqiC1IMQxcWRUJmhU-GH-1" vertex="1">
                    <mxGeometry x="360" y="260" width="130" height="20" as="geometry"/>
                </mxCell>
                <mxCell id="M_8-mfH1-mSaO6mdAAVp-1" value="ID Transaksi" style="text;html=1;strokeColor=none;fillColor=none;align=center;verticalAlign=middle;whiteSpace=wrap;rounded=0;" parent="OqiC1IMQxcWRUJmhU-GH-1" vertex="1">
                    <mxGeometry x="220" y="260" width="80" height="30" as="geometry"/>
                </mxCell>
                <mxCell id="GPF9Vee4GRrz8Nl-UZld-0" value="" style="rounded=0;whiteSpace=wrap;html=1;" parent="OqiC1IMQxcWRUJmhU-GH-1" vertex="1">
                    <mxGeometry x="275" y="450" width="410" height="240" as="geometry"/>
                </mxCell>
                <mxCell id="GPF9Vee4GRrz8Nl-UZld-2" value="" style="endArrow=none;html=1;" parent="OqiC1IMQxcWRUJmhU-GH-1" edge="1">
                    <mxGeometry width="50" height="50" relative="1" as="geometry">
                        <mxPoint x="275" y="479.5" as="sourcePoint"/>
                        <mxPoint x="675" y="479.5" as="targetPoint"/>
                    </mxGeometry>
                </mxCell>
                <mxCell id="GPF9Vee4GRrz8Nl-UZld-3" value="ID" style="text;html=1;strokeColor=none;fillColor=none;align=center;verticalAlign=middle;whiteSpace=wrap;rounded=0;" parent="OqiC1IMQxcWRUJmhU-GH-1" vertex="1">
                    <mxGeometry x="270" y="450" width="60" height="30" as="geometry"/>
                </mxCell>
                <mxCell id="GPF9Vee4GRrz8Nl-UZld-4" value="Menu" style="text;html=1;strokeColor=none;fillColor=none;align=center;verticalAlign=middle;whiteSpace=wrap;rounded=0;" parent="OqiC1IMQxcWRUJmhU-GH-1" vertex="1">
                    <mxGeometry x="360" y="450" width="60" height="30" as="geometry"/>
                </mxCell>
                <mxCell id="GPF9Vee4GRrz8Nl-UZld-5" value="Jumlah" style="text;html=1;strokeColor=none;fillColor=none;align=center;verticalAlign=middle;whiteSpace=wrap;rounded=0;" parent="OqiC1IMQxcWRUJmhU-GH-1" vertex="1">
                    <mxGeometry x="440" y="450" width="60" height="30" as="geometry"/>
                </mxCell>
                <mxCell id="GPF9Vee4GRrz8Nl-UZld-7" value="Harga" style="text;html=1;strokeColor=none;fillColor=none;align=center;verticalAlign=middle;whiteSpace=wrap;rounded=0;" parent="OqiC1IMQxcWRUJmhU-GH-1" vertex="1">
                    <mxGeometry x="555" y="450" width="60" height="30" as="geometry"/>
                </mxCell>
                <mxCell id="2JkggYUwQRnsGkUwJddf-1" value="Total Harga" style="rounded=0;whiteSpace=wrap;html=1;" parent="OqiC1IMQxcWRUJmhU-GH-1" vertex="1">
                    <mxGeometry x="585" y="660" width="90" height="20" as="geometry"/>
                </mxCell>
                <mxCell id="2JkggYUwQRnsGkUwJddf-2" value="Tanggal" style="text;html=1;strokeColor=none;fillColor=none;align=center;verticalAlign=middle;whiteSpace=wrap;rounded=0;" parent="OqiC1IMQxcWRUJmhU-GH-1" vertex="1">
                    <mxGeometry x="211" y="300" width="80" height="30" as="geometry"/>
                </mxCell>
                <mxCell id="2JkggYUwQRnsGkUwJddf-3" value="" style="rounded=0;whiteSpace=wrap;html=1;" parent="OqiC1IMQxcWRUJmhU-GH-1" vertex="1">
                    <mxGeometry x="360" y="310" width="130" height="20" as="geometry"/>
                </mxCell>
                <mxCell id="7wSdmPN-Hzo-uExwKNP1-0" value="Simpan" style="rounded=0;whiteSpace=wrap;html=1;" parent="OqiC1IMQxcWRUJmhU-GH-1" vertex="1">
                    <mxGeometry x="585" y="710" width="105" height="30" as="geometry"/>
                </mxCell>
            </root>
        </mxGraphModel>
    </diagram>
</mxfile>